<?xml version="1.0" encoding="UTF-8" standalone="no"?>
<!-- Created with Inkscape (http://www.inkscape.org/) -->

<svg
   xmlns:dc="http://purl.org/dc/elements/1.1/"
   xmlns:cc="http://creativecommons.org/ns#"
   xmlns:rdf="http://www.w3.org/1999/02/22-rdf-syntax-ns#"
   xmlns:svg="http://www.w3.org/2000/svg"
   xmlns="http://www.w3.org/2000/svg"
   xmlns:sodipodi="http://sodipodi.sourceforge.net/DTD/sodipodi-0.dtd"
   xmlns:inkscape="http://www.inkscape.org/namespaces/inkscape"
   version="1.1"
   id="svg3713"
   width="188"
   height="215"
   viewBox="0 0 188 215"
   sodipodi:docname="Odin_og_Völven_by_Frølich.svg"
   inkscape:version="0.92.4 (5da689c313, 2019-01-14)">
  <metadata
     id="metadata3719">
    <rdf:RDF>
      <cc:Work
         rdf:about="">
        <dc:format>image/svg+xml</dc:format>
        <dc:type
           rdf:resource="http://purl.org/dc/dcmitype/StillImage" />
        <dc:title></dc:title>
      </cc:Work>
    </rdf:RDF>
  </metadata>
  <defs
     id="defs3717" />
  <sodipodi:namedview
     pagecolor="#ffffff"
     bordercolor="#666666"
     borderopacity="1"
     objecttolerance="10"
     gridtolerance="10"
     guidetolerance="10"
     inkscape:pageopacity="0"
     inkscape:pageshadow="2"
     inkscape:window-width="1920"
     inkscape:window-height="1027"
     id="namedview3715"
     showgrid="false"
     inkscape:zoom="3.1441585"
     inkscape:cx="94"
     inkscape:cy="110.52499"
     inkscape:window-x="-8"
     inkscape:window-y="-8"
     inkscape:window-maximized="1"
     inkscape:current-layer="svg3713" />
  <path
     style="fill:#000000;stroke-width:0.78704196"
     d="m 54.775431,192.81067 c -0.09,-0.90917 -0.47882,-2.63571 -1.48495,-6.5931 -3.02082,-11.88183 -3.6708,-16.53358 -2.51804,-18.02113 0.32359,-0.41756 0.41079,-2.91695 0.19378,-5.55418 l -0.39457,-4.79498 -1.94739,3.90054 c -1.07107,2.14529 -3.51265,5.20209 -5.42573,6.79288 -1.91309,1.59079 -2.99964,2.26301 -2.41455,1.49382 1.20609,-1.58562 0.69097,-1.7815 -1.5023,-0.57126 -3.13656,1.73074 -1.29836,-0.55835 2.80978,-3.49899 2.35987,-1.68921 5.18319,-4.46185 6.27406,-6.16142 1.82341,-2.84089 1.92255,-3.43112 1.22915,-7.31783 -0.41483,-2.32524 -1.01242,-4.85704 -1.32799,-5.62624 -0.34705,-0.84595 -0.23472,-1.39853 0.28428,-1.39853 0.47192,0 0.86987,0.62934 0.88434,1.39853 0.0145,0.7692 0.70022,2.83703 1.52391,4.59519 1.27231,2.71576 1.50156,5.01004 1.52391,15.2507 0.0145,6.62973 0.23882,12.27316 0.49856,12.54097 0.39823,0.41058 4.95347,13.21721 4.95347,13.92621 0,0.54343 -3.10534,0.18846 -3.15972,-0.36118 z M 43.983261,166.8543 c 0,-0.46776 -0.4925,-0.39009 -1.16265,0.18335 -0.63946,0.54718 -1.16266,1.11937 -1.16266,1.27152 0,0.15215 0.5232,0.0697 1.16266,-0.18335 0.63946,-0.25301 1.16265,-0.82519 1.16265,-1.27152 z m 39.71244,23.34978 c -0.81181,-2.68185 -0.7793,-3.67767 0.19883,-6.09133 0.6431,-1.58695 1.18164,-4.36983 1.19675,-6.1842 0.0269,-3.23524 0.048,-3.26052 1.09465,-1.31097 0.58695,1.09334 0.90281,2.26211 0.7019,2.59728 -0.20092,0.33517 -0.049,0.6094 0.3376,0.6094 0.38659,0 0.73364,-1.11501 0.77122,-2.47781 0.0376,-1.3628 0.70106,-3.22274 1.47439,-4.13319 0.77333,-0.91046 0.97006,-1.39252 0.43718,-1.07126 -0.68049,0.41026 -0.96535,-0.0841 -0.95701,-1.66074 0.008,-1.59825 0.20771,-1.92603 0.69179,-1.13794 0.53691,0.8741 0.89511,0.706 1.70301,-0.79916 0.5627,-1.04835 0.94899,-2.17581 0.85842,-2.50546 -0.0906,-0.32966 0.18412,-0.59937 0.61043,-0.59937 0.42631,0 0.78044,-0.62934 0.78697,-1.39854 0.0101,-1.19519 0.12112,-1.22424 0.76324,-0.19979 0.5933,0.94657 0.75386,0.77005 0.76323,-0.83912 0.0164,-2.80939 1.46644,-4.22641 3.00644,-2.93789 0.97647,0.81701 1.08668,0.74741 0.66285,-0.4186 -0.28889,-0.79479 -0.14521,-1.39853 0.33283,-1.39853 0.46265,0 0.65876,-0.71925 0.43579,-1.59833 -0.22296,-0.87908 -0.0892,-1.59832 0.29716,-1.59832 1.032859,0 0.857189,-6.20043 -0.19467,-6.87069 -0.6148,-0.39176 -0.75954,-0.0289 -0.45983,1.15268 0.28304,1.11595 0.1429,1.53676 -0.39718,1.19261 -0.53293,-0.33959 -0.65008,-0.0361 -0.32414,0.83957 0.28071,0.75424 0.19538,1.17062 -0.18963,0.92528 -0.38502,-0.24534 -0.84705,-0.17411 -1.02675,0.15829 -0.17969,0.33239 -0.16725,0.0649 0.0277,-0.5944 0.19491,-0.65931 0.52945,-2.89126 0.74344,-4.95989 0.43529,-4.208 2.130999,-6.31602 5.376109,-6.6833 2.99181,-0.3386 3.66497,0.36794 2.07566,2.17862 -1.52036,1.73212 -2.4197,5.94031 -1.08819,5.09186 0.44588,-0.28413 0.8107,-1.05633 0.8107,-1.71601 0,-0.65968 1.7064,-3.06591 3.79201,-5.34719 2.08561,-2.28127 4.29993,-5.40645 4.92072,-6.94484 1.20704,-2.99118 4.96542,-7.99163 6.00658,-7.99163 0.3463,0 -0.33621,1.06603 -1.51669,2.36896 -1.18048,1.30292 -2.36938,3.51887 -2.642,4.92432 -0.29422,1.51673 -1.80694,3.84144 -3.72177,5.71952 -2.21654,2.17398 -2.71772,2.99779 -1.60157,2.63255 1.18436,-0.38757 0.79993,0.31857 -1.41883,2.6062 -1.67384,1.7258 -3.04335,3.73961 -3.04335,4.47515 0,1.00592 0.47413,0.78167 1.91327,-0.90494 1.05229,-1.23325 1.92429,-1.79273 1.93776,-1.24331 0.0135,0.54943 -0.26832,0.99895 -0.6262,0.99895 -1.11709,0 -2.66224,4.24183 -2.84607,7.81316 -0.21192,4.11731 -2.00958,6.39718 -5.30433,6.72718 -1.677859,0.16805 -2.437919,0.66492 -2.437919,1.59371 0,0.74223 -0.79961,2.11905 -1.77691,3.0596 -1.24228,1.19558 -1.6239,2.2071 -1.2684,3.36197 0.44346,1.44057 0.35893,1.50921 -0.66083,0.53662 -0.64313,-0.61339 -1.01096,-1.38497 -0.81739,-1.71462 0.19357,-0.32966 0.0415,-0.59937 -0.33793,-0.59937 -0.80038,0 -2.29594,2.87532 -2.70189,5.19456 -0.15387,0.87908 -0.60785,1.53921 -1.00884,1.46697 -0.40099,-0.0722 -0.76479,0.88786 -0.80846,2.13357 -0.044,1.25521 -1.20868,3.73504 -2.61253,5.56257 -1.39323,1.81369 -2.26894,3.55076 -1.94603,3.86014 0.32291,0.30939 0.74282,0.11299 0.93313,-0.43643 0.19032,-0.54943 0.84016,-0.99896 1.4441,-0.99896 0.61848,0 1.10325,-0.78533 1.10993,-1.79811 0.009,-1.42834 0.16108,-1.55484 0.7374,-0.61511 0.54105,0.8822 0.86141,0.30688 1.25992,-2.2626 0.35959,-2.31855 0.74834,-3.09762 1.18849,-2.38175 0.44783,0.72834 0.65785,0.37077 0.66598,-1.13385 0.007,-1.20873 0.36066,-2.1977 0.78697,-2.1977 0.42631,0 0.77511,-0.53943 0.77511,-1.19874 0,-1.58032 1.25764,-1.5392 1.85306,0.0606 0.25779,0.69265 -0.40249,2.79207 -1.46728,4.66541 -2.8997,5.10153 -2.33206,5.4439 0.77687,0.46855 1.49208,-2.38782 2.71287,-4.96509 2.71287,-5.72727 0,-0.76218 0.61039,-1.75233 1.35643,-2.20034 0.95708,-0.57475 1.03627,-0.82174 0.26896,-0.83888 -2.23852,-0.05 2.526169,-3.22093 4.839859,-3.22093 2.67033,0 7.07852,-2.80102 8.09137,-5.14136 0.49,-1.13223 0.66103,-0.43234 0.61776,2.52799 -0.0425,2.90567 -0.26172,3.70496 -0.75548,2.75417 -1.07817,-2.07615 -1.13484,-2.08695 -2.79961,-0.53359 l -1.56699,1.46212 1.73286,1.9018 c 1.79188,1.96657 2.32751,5.01343 1.04813,5.96223 -0.44529,0.33023 -0.34638,1.42352 0.25306,2.79707 0.74768,1.71321 0.75581,2.02465 0.0339,1.29637 -0.74309,-0.74961 -1.43185,-0.33369 -3.1597,1.90801 -2.83868,3.68289 -2.80152,2.90501 0.11584,-2.42472 1.27892,-2.33645 2.32531,-5.15226 2.32531,-6.25733 0,-2.71663 -2.48839,-4.96242 -4.69749,-4.23952 -1.35982,0.44499 -1.4897,0.71482 -0.63688,1.32313 0.76331,0.54446 0.57245,0.61957 -0.66388,0.26125 -1.99694,-0.57877 -4.160919,1.50189 -7.007889,6.73805 -1.61317,2.96693 -1.64693,3.25037 -0.38756,3.25309 0.98491,0.002 0.71435,0.42738 -0.94573,1.48646 -4.21898,2.69156 -9.68881,8.53696 -9.68881,10.35406 0,2.76915 -1.08654,2.02711 -2.14322,-1.46369 z M 104.01512,167.747 c 1.30729,-1.25935 -1.52173,-0.7761 -3.10729,0.53078 -1.445959,1.19181 -1.429079,1.21944 0.43318,0.70934 1.06577,-0.29193 2.26912,-0.84999 2.67411,-1.24012 z m -7.302999,-3.14872 c 0.46826,-0.90211 0.74213,-2.19927 0.6086,-2.88257 -0.14714,-0.75292 -0.73993,-0.10673 -1.5047,1.64021 -1.325,3.02666 -0.57198,4.07064 0.8961,1.24236 z m 6.521979,-4.67856 c 0.2389,-0.39856 -0.26371,-0.53642 -1.11692,-0.30638 -1.80985,0.48798 -2.03863,1.03101 -0.43436,1.03101 0.6143,0 1.31238,-0.32608 1.55128,-0.72463 z m -0.25347,-2.75732 c 0.0492,-0.50239 0.13637,-1.45288 0.19377,-2.11219 0.0574,-0.65931 0.54037,-1.10884 1.07325,-0.99896 0.53289,0.10989 0.96888,-0.13042 0.96888,-0.53401 0,-0.40359 0.21172,-1.30265 0.47048,-1.9979 0.2998,-0.80552 0.0498,-1.26411 -0.68898,-1.26411 -0.6377,0 -1.11102,0.44953 -1.05181,0.99895 0.0592,0.54943 -0.24114,1.09425 -0.66745,1.21072 -0.42631,0.11648 -1.18456,1.37516 -1.68502,2.79707 -1.22819,3.48963 -1.21508,3.80797 0.13481,3.27389 0.63946,-0.25301 1.20289,-0.87106 1.25207,-1.37346 z m 0.26589,-9.09823 c -0.19542,-0.99262 -0.54368,-2.73395 -0.77392,-3.86963 -0.29858,-1.47278 -0.15311,-1.89568 0.50731,-1.47485 0.57178,0.36435 0.7224,0.25048 0.3938,-0.29772 -0.29268,-0.48825 -1.04416,-0.68515 -1.66997,-0.43755 -1.29061,0.51062 -1.53559,3.12804 -0.36273,3.87541 0.42631,0.27165 0.78045,1.82128 0.78697,3.44361 0.009,2.16068 0.2074,2.63082 0.74286,1.75759 0.40204,-0.65566 0.5711,-2.00424 0.37568,-2.99686 z m -3.701339,-2.75376 c -0.24743,-0.63752 -0.4311,-0.44816 -0.46829,0.48283 -0.0337,0.84244 0.14954,1.31445 0.4071,1.0489 0.25756,-0.26556 0.2851,-0.95484 0.0612,-1.53173 z m 8.797329,-2.64723 c 1.05182,-1.47846 1.03537,-1.51607 -0.21933,-0.50153 -0.74604,0.60325 -1.35644,1.47234 -1.35644,1.93132 0,0.45897 0.0987,0.68466 0.21933,0.50152 0.12063,-0.18314 0.73103,-1.05223 1.35644,-1.93131 z m -0.30586,49.54811 c 0.24539,-0.65931 0.77822,-1.19874 1.18408,-1.19874 0.40585,0 0.51526,-0.37146 0.24311,-0.82547 -0.27214,-0.454 0.24844,-2.12427 1.15686,-3.71172 0.90842,-1.58744 1.45327,-3.4193 1.2108,-4.07081 -0.24248,-0.6515 -0.0198,-1.7076 0.49474,-2.34689 0.73425,-0.91217 0.7135,-1.53538 -0.0964,-2.89557 -1.00157,-1.68205 -0.98695,-1.69193 0.49522,-0.33469 0.84,0.7692 1.72072,1.39854 1.95716,1.39854 0.88924,0 1.15212,-3.0267 0.38555,-4.439 -1.03135,-1.90012 -1.36513,-13.14259 -0.39019,-13.14259 0.41323,0 0.51903,1.03028 0.24021,2.33916 -0.31431,1.47546 -0.0508,3.23128 0.71352,4.75529 1.32798,2.64775 1.63624,4.40927 0.43671,2.49551 -0.60591,-0.9667 -0.75366,-0.84581 -0.76324,0.62445 -0.006,1.00276 0.51133,2.0302 1.15079,2.2832 1.84807,0.73118 1.35746,3.16185 -1.16265,5.76019 -1.27893,1.31862 -2.32532,2.97915 -2.32532,3.69007 0,1.98175 3.2182,6.02284 4.79639,6.02284 0.77245,0 1.40445,0.38085 1.40445,0.84633 0,0.46548 -0.34726,0.62505 -0.77168,0.3546 -0.42443,-0.27046 -1.64868,0.48394 -2.72056,1.67642 -2.43525,2.70923 -3.23315,2.00688 -2.08851,-1.83844 0.48387,-1.62554 0.7131,-3.12739 0.50939,-3.33742 -0.47414,-0.48885 -2.36484,2.06232 -3.62833,4.89579 -1.00338,2.25016 -3.2396,3.16867 -2.43207,0.99895 z m 8.03135,-2.44465 c 0,-0.68525 -0.3488,-1.02365 -0.77511,-0.752 -0.4263,0.27165 -0.7751,0.83231 -0.7751,1.24591 0,0.4136 0.3488,0.752 0.7751,0.752 0.42631,0 0.77511,-0.56066 0.77511,-1.24591 z m -3.48797,-3.54907 c 0.26347,-0.43954 0.10966,-0.79916 -0.34181,-0.79916 -0.45147,0 -0.82085,0.35962 -0.82085,0.79916 0,0.43954 0.15381,0.79916 0.34181,0.79916 0.18799,0 0.55737,-0.35962 0.82085,-0.79916 z m 3.87552,6.60774 c 0.85261,-0.21964 1.79728,-0.80426 2.09926,-1.29916 0.39238,-0.64304 0.83475,-0.5832 1.55021,0.20969 0.62231,0.68967 0.65479,0.90902 0.0858,0.57966 -0.50343,-0.29143 -1.13442,-0.16437 -1.40218,0.28234 -0.26777,0.44671 -1.25107,0.77048 -2.1851,0.7195 -1.57599,-0.086 -1.58664,-0.12145 -0.14803,-0.49203 z m 6.50259,-0.41423 c -0.0472,-0.54942 -0.0224,-1.80662 0.055,-2.79377 0.10087,-1.28536 -0.18392,-1.66632 -1.00332,-1.34213 -0.87982,0.3481 -1.11639,-0.16041 -1.02393,-2.201 0.0661,-1.45952 0.46903,-2.91789 0.89534,-3.24082 0.48382,-0.36649 0.42014,-0.59173 -0.16946,-0.59937 -0.5195,-0.006 -0.74378,-0.55167 -0.4984,-1.21098 0.54679,-1.46912 -0.42416,-1.50653 -2.23879,-0.0863 -1.58166,1.23792 -1.77685,2.13969 -0.38755,1.79049 0.53289,-0.13394 0.68596,-0.0854 0.34017,0.10797 -0.34579,0.19331 0.003,1.0891 0.77511,1.99063 1.40282,1.63801 1.40231,1.63816 -0.72773,0.22479 -2.78736,-1.84953 -2.65394,-3.65131 0.41741,-5.63673 1.65807,-1.07184 2.57268,-2.35598 2.73916,-3.84584 0.19729,-1.76565 0.46843,-2.04974 1.28743,-1.34893 0.64081,0.54834 1.21303,0.59495 1.49658,0.12193 0.60584,-1.01071 -0.30785,-3.41033 -1.10511,-2.90231 -0.34187,0.21785 -0.43904,-0.32364 -0.21593,-1.20333 0.22314,-0.87969 0.67593,-1.59943 1.00623,-1.59943 0.52334,0 3.09418,-5.69442 3.09418,-6.85362 0,-0.23539 -0.87518,0.58104 -1.94483,1.81429 -1.53526,1.77004 -1.41283,1.37356 0.58132,-1.88262 1.38939,-2.26869 2.64229,-4.00701 2.78422,-3.86295 0.14193,0.14407 -0.31331,3.15017 -1.01163,6.68025 -0.7242,3.66087 -1.05291,7.60971 -0.76511,9.19142 0.29794,1.63743 0.1367,3.37282 -0.39372,4.23751 -0.78021,1.27189 -0.84055,1.18192 -0.45899,-0.6843 0.67542,-3.30346 -0.77438,-3.37625 -2.63085,-0.1321 -1.84497,3.22406 -1.60448,5.0136 0.75941,5.65096 1.22761,0.33099 1.37261,0.65741 0.67629,1.52245 -0.48749,0.60562 -0.62653,1.10114 -0.30898,1.10114 0.31755,0 0.19722,0.47226 -0.2674,1.04948 -0.48256,0.59949 -0.64594,2.31282 -0.38105,3.99582 0.30544,1.94058 0.16452,2.94633 -0.41279,2.94633 -0.48209,0 -0.91513,-0.44953 -0.96232,-0.99896 z m 1.21535,-7.73661 c 0.24528,-0.40918 0.0915,-0.96984 -0.3418,-1.24592 -0.43326,-0.27607 -0.78775,0.0587 -0.78775,0.74395 0,1.40375 0.46511,1.61044 1.12955,0.50197 z m -73.537149,5.82411 c -0.73847,-1.98413 0.0755,-2.25505 1.06244,-0.35364 0.47615,0.91731 0.54168,1.66677 0.14573,1.66677 -0.3957,0 -0.93938,-0.59091 -1.20817,-1.31313 z m 55.836799,-0.68478 c 0.27654,-1.31862 0.80932,-2.93692 1.18395,-3.59623 0.43588,-0.76709 0.50011,-0.33543 0.17836,1.19874 -0.27654,1.31862 -0.80932,2.93693 -1.18395,3.59624 -0.43588,0.76708 -0.50011,0.33543 -0.17836,-1.19875 z m 14.24549,0.39959 c 0,-0.43954 0.36938,-0.79917 0.82085,-0.79917 0.45146,0 0.60528,0.35963 0.3418,0.79917 -0.26347,0.43954 -0.63286,0.79916 -0.82085,0.79916 -0.18799,0 -0.3418,-0.35962 -0.3418,-0.79916 z m -79.295599,-1.91251 c -0.31717,-0.8321 -0.39406,-1.70119 -0.17088,-1.9313 0.70695,-0.72889 1.32897,0.46556 1.03275,1.98314 -0.27148,1.39081 -0.31294,1.38831 -0.86187,-0.0519 z m 83.752449,-1.01425 c 0.53288,-0.2217 1.40487,-0.2217 1.93776,0 0.53288,0.22169 0.0969,0.40309 -0.96888,0.40309 -1.06577,0 -1.50177,-0.1814 -0.96888,-0.40309 z m 2.15261,-2.66739 c 0.3884,-0.65931 0.60238,-2.02694 0.47549,-3.03917 -0.25389,-2.02533 1.21906,-4.38918 2.30413,-3.69775 0.378,0.24087 0.68728,0.0783 0.68728,-0.36122 0,-0.43954 -0.3488,-1.02142 -0.77511,-1.29307 -1.20299,-0.76657 -0.92895,-1.78787 0.96888,-3.61084 0.95919,-0.92137 1.75635,-1.92434 1.77146,-2.22884 0.0151,-0.30449 0.41667,-1.27287 0.89237,-2.15195 1.24323,-2.29743 2.1436,-9.19038 1.20047,-9.19038 -0.42272,0 -1.34217,0.80915 -2.04324,1.79812 -1.20357,1.69785 -1.20885,1.6555 -0.0945,-0.75948 0.64907,-1.40668 1.18012,-3.36142 1.18012,-4.34389 0,-0.98246 0.73052,-2.58803 1.62338,-3.56793 1.18564,-1.30123 1.46847,-2.28481 1.04892,-3.64774 -0.31595,-1.02636 -0.57586,-2.04592 -0.57758,-2.26569 -0.002,-0.21977 -0.42499,-0.7592 -0.94061,-1.19874 -1.25473,-1.0696 -2.06558,-3.59624 -1.15411,-3.59624 0.39955,0 0.53923,-0.50305 0.31039,-1.11791 -0.22884,-0.61485 -0.0682,-1.33956 0.35692,-1.61047 0.47021,-0.29962 0.65714,0.45133 0.47722,1.91707 -0.16268,1.3253 0.009,2.40964 0.3824,2.40964 1.2484,0 2.45042,-5.42057 1.88776,-8.51293 -0.53995,-2.96751 -0.56839,-2.98852 -1.68893,-1.24851 -0.62685,0.97339 -1.4713,1.76981 -1.87655,1.76981 -0.40526,0 -0.0151,-0.94601 0.86701,-2.10224 0.88211,-1.15623 2.00116,-3.58369 2.48678,-5.39435 0.48561,-1.81067 1.03978,-2.84035 1.23149,-2.28818 0.19169,0.55216 0.66849,0.80006 1.05954,0.55087 0.41542,-0.26471 0.34169,-1.16455 -0.17734,-2.16448 -0.66836,-1.28759 -0.66769,-1.78726 0.003,-2.01766 0.4901,-0.16844 0.69393,-0.63516 0.45295,-1.03716 -0.24096,-0.40199 0.31738,-0.7309 1.24076,-0.7309 1.05609,0 1.53595,0.38404 1.29356,1.03529 -0.22512,0.60487 0.22378,1.0826 1.07973,1.14908 1.25339,0.0974 1.46468,-0.45532 1.46468,-3.83237 0,-2.32368 0.34859,-3.94615 0.84784,-3.94615 0.92647,0 0.22654,7.8867 -0.80054,9.02029 -0.31349,0.34599 -1.50372,0.26304 -2.64496,-0.18433 -1.94584,-0.76277 -2.04577,-0.69342 -1.60569,1.11443 0.3337,1.37083 0.009,2.3341 -1.12356,3.33399 -1.20713,1.06566 -1.3854,1.66388 -0.7362,2.47041 0.66758,0.82935 0.57585,0.95314 -0.41565,0.56085 -0.70745,-0.2799 -1.27229,-0.11063 -1.27229,0.38129 0,0.48657 0.6976,0.88466 1.55021,0.88466 0.85262,0 1.55021,0.35963 1.55021,0.79917 0,0.43954 -0.43851,0.79916 -0.97447,0.79916 -0.67513,0 -0.89163,1.07381 -0.7048,3.49576 0.159,2.0613 -0.2053,4.44274 -0.88782,5.80355 -1.02285,2.03937 -1.02411,2.57025 -0.0109,4.56421 1.07635,2.11807 1.01686,2.44954 -0.97043,5.40619 -1.88462,2.80394 -2.00667,3.36247 -1.11156,5.08693 1.09495,2.10943 0.58423,8.93507 -0.77328,10.33471 -0.42222,0.43532 -0.76766,1.55786 -0.76766,2.49453 0,0.99866 -0.80146,2.14527 -1.93777,2.77228 -2.06363,1.1387 -2.41994,1.99591 -1.16265,2.79707 1.32223,0.84255 0.87144,2.88381 -0.58133,2.63232 -1.08199,-0.18732 -1.31904,0.27241 -1.17157,2.27222 0.11564,1.56831 -0.30287,2.9149 -1.11767,3.59624 -1.12126,0.9376 -1.20425,0.92235 -0.59633,-0.10957 z m -17.46093,-1.51229 c 0,-0.53874 -0.40269,-0.72293 -0.89486,-0.4093 -0.57685,0.36757 -0.68349,0.21759 -0.30007,-0.42205 0.42263,-0.70506 0.83496,-0.74466 1.42452,-0.1368 0.45635,0.47052 0.59138,1.10122 0.30007,1.40157 -0.29131,0.30035 -0.52966,0.10532 -0.52966,-0.43342 z m -62.535929,-1.8873 c -2.67817,-3.06751 -2.99121,-4.34392 -0.36432,-1.48549 1.36823,1.48882 2.36254,2.836 2.20958,2.9937 -0.15297,0.15772 -0.98333,-0.52098 -1.84526,-1.50821 z m 78.038019,-0.64339 c 0,-0.46548 0.3488,-0.62407 0.77511,-0.35241 0.42631,0.27165 0.7751,0.6525 0.7751,0.84633 0,0.19382 -0.34879,0.35241 -0.7751,0.35241 -0.42631,0 -0.77511,-0.38085 -0.77511,-0.84633 z m -19.76516,-6.34614 c -0.77161,-0.87908 -1.08397,-1.59832 -0.69414,-1.59832 0.38984,0 1.14444,0.71924 1.67691,1.59832 0.53247,0.87908 0.84483,1.59833 0.69413,1.59833 -0.15069,0 -0.9053,-0.71925 -1.6769,-1.59833 z m -20.884179,-0.88457 c -0.20922,-0.61233 -0.83186,-5.22043 -1.38364,-10.24019 -0.55179,-5.01978 -1.3771,-9.25535 -1.83403,-9.41239 -0.45692,-0.15703 -1.25168,1.16298 -1.76613,2.93335 -0.51445,1.77037 -1.25921,3.21887 -1.65503,3.21887 -0.39581,0 -0.51737,0.54351 -0.27013,1.2078 0.32166,0.86426 0.0943,1.06725 -0.79943,0.71366 -0.86334,-0.34157 -1.26786,-0.036 -1.31016,0.98989 -0.04,0.96984 -0.20539,1.11088 -0.47737,0.40707 -0.22889,-0.59234 0.32184,-2.10618 1.22386,-3.36409 0.90201,-1.25791 1.64002,-2.86232 1.64002,-3.56537 0,-0.77246 0.35883,-1.04962 0.90683,-0.70043 0.60974,0.38854 0.74467,0.14218 0.41188,-0.752 -0.27223,-0.73141 -0.18181,-1.32984 0.20091,-1.32984 1.06705,0 5.45632,-7.07363 5.45632,-8.79326 0,-0.83636 0.39151,-2.4066 0.87003,-3.48942 0.67594,-1.52959 0.60369,-2.77466 -0.3239,-5.58148 -0.93565,-2.83121 -0.97412,-3.52575 -0.17784,-3.2107 1.80658,0.71476 2.21447,8.50447 0.704,13.44495 -0.74546,2.43829 -1.59098,4.43326 -1.87892,4.43326 -0.28794,0 -0.46674,1.34859 -0.39734,2.99686 0.32714,7.76874 0.42194,8.29004 1.39775,7.6856 0.73872,-0.45759 0.73211,-0.29875 -0.0278,0.66862 -0.782,0.99549 -0.81715,2.42747 -0.16316,6.64833 0.76416,4.93193 0.5705,7.77545 -0.34673,5.09091 z m 27.538909,-1.11334 c 0.0807,-1.51379 1.37253,-4.06282 1.41752,-2.79707 0.0234,0.65931 -0.29551,1.73818 -0.70876,2.39749 -0.41325,0.65931 -0.73219,0.83912 -0.70876,0.39958 z m -39.696239,-1.59832 c 0.41859,-0.87908 1.32906,-2.31758 2.02328,-3.19665 l 1.26221,-1.59833 -0.76107,1.59833 c -0.41858,0.87907 -1.32906,2.31757 -2.02328,3.19665 l -1.26221,1.59832 z m 34.204159,0.39958 c -0.69859,-0.46548 -0.7942,-0.77958 -0.23952,-0.78693 0.50773,-0.006 1.13871,0.34739 1.40218,0.78693 0.59474,0.99218 0.32641,0.99218 -1.16266,0 z m -16.215999,-5.26116 c 0.0372,-0.93098 0.22086,-1.12034 0.46829,-0.48283 0.22391,0.5769 0.19637,1.26617 -0.0612,1.53174 -0.25756,0.26555 -0.44076,-0.20646 -0.4071,-1.04891 z m 27.383639,-1.13215 c 0.15033,-1.53838 -0.046,-3.42641 -0.43624,-4.1956 -0.39027,-0.7692 -0.53518,-1.39854 -0.32203,-1.39854 1.14284,0 1.79655,3.12548 1.17534,5.61947 l -0.6904,2.77175 z M 87.712771,154.25104 c 0.23666,-1.09885 0.43506,-4.30549 0.44088,-7.12587 0.006,-2.82038 0.2473,-4.8839 0.53661,-4.5856 0.81713,0.84249 0.3449,10.90173 -0.58143,12.38563 -0.67436,1.08025 -0.74721,0.95625 -0.39606,-0.67416 z m 29.239289,0 c 0,-0.65931 0.29976,-1.91799 0.66615,-2.79707 0.41989,-1.00746 0.66614,-1.15517 0.66614,-0.39958 0,0.65931 -0.29976,1.91799 -0.66614,2.79707 -0.41989,1.00746 -0.66615,1.15518 -0.66615,0.39958 z m 11.69744,-2.39749 c 0,-1.53839 0.15951,-2.16773 0.35447,-1.39853 0.19496,0.76919 0.19496,2.02787 0,2.79707 -0.19496,0.76919 -0.35447,0.13985 -0.35447,-1.39854 z m -49.147449,-1.33794 c 0.33076,-1.67262 0.52567,-1.87357 0.75155,-0.77487 0.16773,0.81588 -0.0332,1.83212 -0.44658,2.25829 -0.48532,0.50039 -0.59335,-0.0251 -0.30497,-1.48342 z m -21.56311,-1.0501 c -0.53898,-1.34162 -1.90923,-3.24549 -3.045,-4.23084 -1.13577,-0.98535 -2.3637,-2.32665 -2.72873,-2.98068 -0.36504,-0.65403 0.63923,0.0695 2.2317,1.60793 2.8433,2.74674 5.53256,7.00096 4.86238,7.69195 -0.18721,0.19301 -0.78136,-0.74675 -1.32035,-2.08836 z m 61.768479,-2.79648 c 0.70898,-1.53287 1.42665,-2.64516 1.59483,-2.47176 0.35458,0.36559 -1.99838,5.25879 -2.52875,5.25879 -0.19531,0 0.22496,-1.25416 0.93392,-2.78703 z m -81.900929,-6.8808 c 0.004,-14.87864 0.75905,-22.30695 2.44553,-24.04578 1.44438,-1.48921 2.95614,-1.34529 2.95614,0.28143 0,0.46062 -0.49121,0.64315 -1.09158,0.40562 -1.09151,-0.43186 -2.55197,3.16392 -1.65901,4.08461 0.2339,0.24115 0.42528,-0.002 0.42528,-0.54105 0,-0.53874 0.29357,-0.79245 0.65238,-0.56382 0.3588,0.22864 2.88758,-1.72416 5.6195,-4.33955 4.89801,-4.68908 5.03185,-4.75587 9.61776,-4.79902 2.55785,-0.0241 5.92294,-0.51238 7.47799,-1.08515 1.85809,-0.68439 3.27304,-0.78423 4.12743,-0.29125 1.86519,1.07621 1.91554,0.60343 0.31867,-2.9926 -0.95901,-2.15962 -1.42612,-2.66517 -1.43985,-1.55837 -0.0112,0.90106 0.41567,2.1424 0.94855,2.75853 0.82426,0.95303 0.76641,0.96228 -0.38755,0.062 -0.98074,-0.76516 -1.35643,-0.79676 -1.35643,-0.11409 0,0.5193 -0.3488,0.72192 -0.77511,0.45027 -0.4263,-0.27165 -0.7751,-0.85353 -0.7751,-1.29307 0,-0.43954 0.3488,-0.57691 0.7751,-0.30526 0.44271,0.2821 0.77511,-0.41978 0.77511,-1.63666 0,-1.59021 -0.30277,-2.01078 -1.19379,-1.65825 -0.82624,0.32689 -1.12455,0.0511 -0.96888,-0.89552 0.1237,-0.75234 -0.21109,-1.42089 -0.74397,-1.4857 -0.53289,-0.0648 -1.05608,-0.20379 -1.16266,-0.308847 -0.80578,-0.7943 -4.61049,-0.52587 -4.93581,0.348227 -0.32499,0.8732 -0.82529,0.84666 -2.75553,-0.14616 -2.30164,-1.183852 -7.94149,-1.062963 -14.61556,0.31328 -1.28124,0.2642 -2.30267,0.13264 -2.30267,-0.29659 0,-1.339003 7.96764,-2.82847 12.43605,-2.324788 5.07525,0.572084 12.71026,1.200767 15.6893,1.291888 1.1983,0.03665 1.95065,0.414211 1.69043,0.848326 -0.25791,0.430254 -0.79362,0.575374 -1.19047,0.322494 -1.36214,-0.867976 -0.72002,0.36263 1.24796,2.39169 2.82932,2.91715 6.33747,4.68809 6.78379,3.4245 0.36421,-1.03114 0.43231,-1.00023 4.85043,2.20176 1.56998,1.13781 3.80196,1.67419 7.84204,1.88453 5.17005,0.26919 5.85052,0.11785 8.04995,-1.7903 1.45771,-1.26465 3.36978,-2.09432 4.862139,-2.10974 2.33042,-0.0241 2.38059,-0.087 0.95512,-1.19869 -1.032829,-0.80544 -1.667269,-0.90173 -2.023669,-0.30716 -0.33743,0.56292 -0.67834,0.43846 -0.97386,-0.35554 -0.25007,-0.67192 -1.69075,-1.46075 -3.2015,-1.75297 -1.51075,-0.29221 -2.57954,-0.81037 -2.37508,-1.15145 0.20445,-0.34108 -0.47898,-0.78782 -1.51873,-0.99275 -1.10415,-0.21763 -1.82578,-0.0142 -1.73495,0.48901 0.0855,0.47389 -0.71648,0.9743 -1.78225,1.11203 l -1.93776,0.25042 1.93776,-1.61221 c 2.42502,-2.0176 3.9383,-2.054546 6.29008,-0.15356 1.01668,0.8218 2.9391,1.73969 4.27204,2.03976 1.33295,0.30007 3.580689,1.42581 4.994999,2.50164 2.95969,2.25137 5.89781,2.42829 14.49516,0.87284 3.84505,-0.69566 5.54902,-0.74907 5.36125,-0.16807 -0.15138,0.46843 -1.19237,0.86821 -2.31331,0.88841 -2.42326,0.0436 -2.50335,0.11988 -3.18073,3.02711 -0.34609,1.48539 -0.25025,2.08789 0.27852,1.75095 0.44339,-0.28254 0.81151,-1.30164 0.81804,-2.26466 0.009,-1.30376 0.18417,-1.4705 0.6865,-0.65286 0.44503,0.72438 0.0446,2.05539 -1.17684,3.91105 -1.01831,1.54714 -2.26445,4.23418 -2.76921,5.9712 -0.58051,1.99772 -1.55352,3.40744 -2.64799,3.83647 -0.95164,0.37304 -2.09659,1.32754 -2.54435,2.1211 -0.44775,0.79356 -0.8247,1.06524 -0.83766,0.60372 -0.013,-0.46152 0.39498,-1.27067 0.90655,-1.79812 0.66998,-0.69077 0.68277,-0.95899 0.0457,-0.95899 -1.12562,0 -1.85017,1.2193 -2.57043,4.32563 -0.55376,2.38828 -0.57461,2.39887 -0.65141,0.33087 -0.0449,-1.20927 0.76157,-3.16678 1.85842,-4.51076 1.06577,-1.30591 1.9431,-3.22152 1.94963,-4.25693 0.009,-1.44961 0.17495,-1.61677 0.72102,-0.72685 0.443,0.72194 0.39092,1.77171 -0.13877,2.79707 -0.76136,1.47382 -0.71627,1.52941 0.44164,0.54458 1.72417,-1.46646 1.62716,-3.80272 -0.26065,-6.27718 -0.85262,-1.11756 -1.59148,-2.61278 -1.64192,-3.3227 -0.0504,-0.70992 -0.38737,-0.21189 -0.74874,1.10673 -0.59623,2.17562 -0.6269,2.11242 -0.33142,-0.68299 0.30363,-2.87241 0.21022,-3.04222 -1.38279,-2.51395 -0.93963,0.31158 -2.84524,0.74856 -4.23469,0.97108 -1.38945,0.2225 -2.71803,0.72444 -2.95239,1.11541 -0.234359,0.39098 -1.103119,0.71087 -1.930579,0.71087 -0.82746,0 -1.50446,0.42835 -1.50446,0.9519 0,0.52355 -0.54511,0.25383 -1.21135,-0.59937 -0.67106,-0.85937 -1.36682,-1.18144 -1.55992,-0.7221 -0.44339,1.05477 -10.13177,0.20647 -12.4861,-1.09326 -2.26342,-1.24956 -6.90677,-1.12506 -10.70864,0.28713 -3.445,1.27963 -5.51682,1.48543 -3.10042,0.30798 1.04139,-0.50744 -0.23067,-0.59006 -3.87552,-0.2517 -2.98416,0.27703 -6.29773,0.58348 -7.3635,0.68103 -3.47508,0.31803 -8.11935,3.40371 -12.6288,8.39063 -4.38888,4.85359 -4.42366,4.93074 -4.44332,9.85789 -0.0273,6.8281 -0.74165,18.40454 -1.16257,18.83852 -0.19027,0.19617 -0.34496,-3.74394 -0.34376,-8.75582 z m 78.034159,-28.03686 c -0.46848,-0.29899 -1.48097,-0.19643 -2.24998,0.22791 -0.92898,0.5126 -1.3982,0.49389 -1.3982,-0.0558 0,-0.455 0.47483,-0.82728 1.05518,-0.82728 0.69934,0 0.9338,-0.65462 0.69525,-1.94123 -0.40256,-2.17122 -2.51743,-1.98068 -2.5374,0.22862 -0.0103,1.13973 -0.11104,1.15481 -0.76323,0.11429 -0.41326,-0.65931 -0.75671,-0.80318 -0.76324,-0.3197 -0.006,0.48348 1.09734,2.4578 2.45305,4.38738 l 2.46491,3.50833 0.94772,-2.38947 c 0.68146,-1.71814 0.70841,-2.5422 0.0959,-2.93308 z m -13.1817,-2.31656 c 1.25072,-0.0364 1.67748,-0.2564 1.00737,-0.51941 -0.63946,-0.25097 -1.40588,-0.8425 -1.70316,-1.3145 -0.34961,-0.5551 -1.18847,-0.23055 -2.375269,0.91899 -1.00912,0.97745 -2.16108,1.77167 -2.55991,1.76494 -0.39883,-0.006 -0.21206,-0.3468 0.41506,-0.75571 0.62711,-0.40891 0.86019,-1.03217 0.51795,-1.38504 -0.74426,-0.76737 -2.94878,2.09213 -2.36445,3.06696 0.22369,0.37317 1.41599,0.14038 2.64955,-0.51732 1.23356,-0.6577 3.219349,-1.22421 4.412859,-1.25891 z m 13.68935,-0.33649 c -0.24539,-0.65931 -0.74669,-1.19874 -1.11401,-1.19874 -0.36732,0 -0.46708,0.53943 -0.22169,1.19874 0.24538,0.65931 0.74668,1.19875 1.114,1.19875 0.36732,0 0.46708,-0.53944 0.2217,-1.19875 z m -44.461269,-1.9979 c -0.61477,-0.39175 -1.29216,-0.53245 -1.50531,-0.31268 -0.21316,0.21977 0.11544,0.7201 0.73021,1.11184 0.61477,0.39174 1.29216,0.53244 1.50531,0.31267 0.21315,-0.21977 -0.11544,-0.72009 -0.73021,-1.11183 z m 7.81224,39.49198 c 0.0372,-0.93099 0.22086,-1.12035 0.4683,-0.48283 0.2239,0.57689 0.19636,1.26617 -0.0612,1.53173 -0.25757,0.26555 -0.44076,-0.20646 -0.4071,-1.0489 z m 38.387349,-2.36916 c 1.15363,-1.55944 2.82817,-3.20188 3.72119,-3.64987 1.61856,-0.81196 1.61848,-0.80995 -0.0234,0.63764 -0.9059,0.79869 -2.254,2.44113 -2.99579,3.64987 -0.74179,1.20873 -1.67514,2.19769 -2.07411,2.19769 -0.39897,0 0.21848,-1.2759 1.37211,-2.83533 z m -70.519629,-4.78761 c -0.74796,-2.00965 -0.52731,-2.52819 0.38642,-0.90812 0.45242,0.80216 0.6593,1.62682 0.45973,1.83258 -0.19956,0.20576 -0.58033,-0.21025 -0.84615,-0.92446 z m 51.44871,0.92791 c 0,-0.16595 0.61039,-0.79529 1.356429,-1.39854 1.22936,-0.99405 1.25677,-0.96579 0.29264,0.30173 -1.012569,1.33121 -1.649069,1.75455 -1.649069,1.09681 z m 7.659249,-0.13781 c -0.0505,-0.41756 -0.0505,-1.02892 0,-1.35858 0.0505,-0.32965 -0.21969,-0.59937 -0.60038,-0.59937 -1.24986,0 -1.58313,-2.30491 -0.71895,-4.97225 0.82942,-2.56005 4.04467,-6.21603 5.46667,-6.21603 0.39271,0 -0.29012,0.87116 -1.51741,1.9359 -1.7527,1.52058 -2.24634,2.63501 -2.30094,5.19456 -0.0699,3.27739 0.91461,4.46496 1.54208,1.86012 0.18529,-0.76919 0.20301,-0.3309 0.0394,0.97398 -0.29233,2.33118 -1.72483,4.71689 -1.91044,3.18167 z m -12.697429,-2.75711 c -1.22529,-1.31862 -1.90094,-2.37759 -1.50145,-2.35328 0.68288,0.0416 4.67834,4.75077 4.03073,4.75077 -0.16582,0 -1.304,-1.07887 -2.52928,-2.39749 z m 25.389899,0.79916 c 0.17435,-0.65931 0.9857,-1.28231 1.80299,-1.38445 1.0441,-0.13047 1.14024,-0.0354 0.32332,0.31963 -0.63946,0.27792 -1.45081,0.90092 -1.80299,1.38444 -0.41186,0.56544 -0.52723,0.4514 -0.32332,-0.31962 z m -17.25131,-0.31408 c 0,-0.17275 0.5232,-0.52108 1.16266,-0.77408 0.63946,-0.253 1.16266,-0.11166 1.16266,0.31407 0,0.42575 -0.5232,0.77409 -1.16266,0.77409 -0.63946,0 -1.16266,-0.14134 -1.16266,-0.31408 z m 26.43322,-2.86608 c 1.28556,-2.70903 2.6604,-4.01231 4.23258,-4.01231 0.97314,0 0.73179,0.4701 -0.91351,1.77935 -1.22984,0.97864 -2.69131,2.32722 -3.24771,2.99686 -0.83961,1.01047 -0.85174,0.88056 -0.0714,-0.7639 z m -40.071189,-1.73853 -1.47657,-1.72204 2.13154,1.41437 c 2.19786,1.45837 2.61349,2.02971 1.47657,2.02971 -0.36024,0 -1.31943,-0.77492 -2.13154,-1.72204 z m -42.26167,-1.29993 c -0.25536,-1.58812 -0.14161,-2.33365 0.2884,-1.89029 0.39053,0.40265 0.58028,1.58273 0.42166,2.62238 -0.24407,1.59968 -0.35323,1.48712 -0.71006,-0.73209 z m 39.62245,-1.2136 c 0,-0.74722 -0.33785,-1.35858 -0.75078,-1.35858 -0.41293,0 -0.55001,-0.53943 -0.30463,-1.19874 0.24539,-0.65931 0.0394,-1.19874 -0.45762,-1.19874 -0.49708,0 -0.68821,-0.35963 -0.42473,-0.79917 0.83307,-1.38977 1.56916,-0.87765 2.53653,1.76476 0.62055,1.69505 0.67814,2.83251 0.16993,3.35649 -0.5082,0.52397 -0.7687,0.33216 -0.7687,-0.56602 z m 35.115539,-1.15891 c 0.0895,-1.7105 2.4632,-3.27738 3.43973,-2.27054 0.25208,0.2599 -0.0697,0.47255 -0.71507,0.47255 -0.64537,0 -1.5436,0.80915 -1.99606,1.79812 l -0.82267,1.79811 z m -25.027309,-2.39736 c 0.023,-1.16186 1.3676,-2.78848 2.06232,-2.4949 0.38679,0.16346 0.0783,0.92654 -0.68546,1.69573 -0.7638,0.7692 -1.38339,1.12882 -1.37686,0.79917 z m -5.4376,-0.51387 c 0,-0.17275 0.54131,-0.52825 1.20291,-0.79002 0.68978,-0.2729 1.00091,-0.13893 0.72936,0.31408 -0.45519,0.75938 -1.93227,1.12319 -1.93227,0.47594 z m 3.6647,-0.23213 c -0.20133,-0.35889 0.33212,-1.37179 1.18545,-2.25087 l 1.55149,-1.59832 -0.9805,1.99791 c -1.25841,2.56419 -1.32007,2.62918 -1.75644,1.85128 z m -11.41575,-1.77568 c 0,-0.39795 -1.22079,-2.23009 -2.71287,-4.07142 -3.90622,-4.82056 -3.31471,-5.13103 0.76127,-0.39958 3.51379,4.07886 4.09944,5.19456 2.7267,5.19456 -0.4263,0 -0.7751,-0.3256 -0.7751,-0.72356 z m 39.967719,-0.30986 c 0.29107,-0.78815 0.72448,-1.23169 0.96313,-0.98563 0.23864,0.24605 4.9e-4,0.89089 -0.52923,1.433 -0.76551,0.78339 -0.85454,0.69159 -0.4339,-0.44737 z m -33.689069,-1.12793 c 0.56439,-0.96898 1.193,-1.58975 1.39692,-1.37951 0.20391,0.21024 -0.25786,1.00304 -1.02616,1.76177 -1.33469,1.31805 -1.3512,1.30102 -0.37076,-0.38226 z m 42.746719,0.49901 c 0.74603,-0.44801 1.35643,-1.17755 1.35643,-1.62119 0,-0.44364 -0.40269,-0.55002 -0.89487,-0.23639 -0.55443,0.35329 -0.68446,0.21922 -0.3418,-0.35242 0.30418,-0.50745 1.21648,-0.92264 2.02732,-0.92264 0.81085,0 2.18177,-0.78298 3.04649,-1.73996 0.86472,-0.95698 1.77336,-1.53257 2.01921,-1.2791 0.24584,0.25347 -0.33944,1.21627 -1.30063,2.13954 -0.96119,0.92327 -1.39118,1.67868 -0.95554,1.67868 0.43564,0 0.79208,0.52362 0.79208,1.16359 0,0.63998 -0.30595,0.96864 -0.67987,0.73037 -0.37394,-0.23827 -1.275,0.0411 -2.00235,0.62075 -1.00701,0.80256 -0.97026,0.62834 0.15408,-0.73036 1.83178,-2.21361 0.45534,-2.38701 -1.47657,-0.18602 -0.77161,0.87908 -1.78486,1.58739 -2.25167,1.57402 -0.46681,-0.0133 -0.23835,-0.39085 0.50769,-0.83887 z m -4.84441,-0.73515 c 0,-0.43954 0.36939,-0.79916 0.82085,-0.79916 0.45147,0 0.60528,0.35962 0.34181,0.79916 -0.26347,0.43954 -0.63286,0.79916 -0.82085,0.79916 -0.188,0 -0.34181,-0.35962 -0.34181,-0.79916 z m -26.74885,-3.98748 c 1.22102,-1.31403 2.39218,-2.21168 2.60257,-1.99476 0.51159,0.52748 -3.040209,4.38391 -4.037609,4.38391 -0.43176,0 0.21401,-1.07512 1.435039,-2.38915 z m -32.421129,-1.00729 c 0.46595,-0.79 7.35686,-0.75086 8.57762,0.0487 0.52366,0.34298 -1.27163,0.60719 -3.98952,0.58713 -2.71789,-0.0201 -4.78254,-0.30619 -4.5881,-0.63584 z m 55.731839,-1.63279 c 0.29108,-0.78816 0.72449,-1.23169 0.96313,-0.98564 0.23865,0.24606 5e-4,0.8909 -0.52922,1.43301 -0.76551,0.78338 -0.85454,0.69159 -0.43391,-0.44737 z m 3.89088,-0.0523 c 0.58134,-1.56196 1.5678,-1.69391 2.33865,-0.31282 0.30667,0.54942 0.27214,0.73235 -0.0767,0.40651 -0.34885,-0.32584 -1.11035,-0.18507 -1.69222,0.31283 -0.83611,0.71545 -0.95557,0.6302 -0.56971,-0.40652 z m -54.277839,-0.43808 c -0.2389,-0.39856 0.26371,-0.53642 1.11692,-0.30638 1.80985,0.48798 2.03864,1.03101 0.43436,1.03101 -0.6143,0 -1.31238,-0.32608 -1.55128,-0.72463 z m 33.163979,-1.24715 c 0.49277,-1.08449 1.01606,-1.61206 1.16285,-1.17239 0.37953,1.13681 -0.47105,3.14417 -1.3323,3.14417 -0.40615,0 -0.33143,-0.86946 0.16945,-1.97178 z m -49.873399,-0.42773 c 2.57818,-0.84865 4.65156,-0.93691 4.64661,-0.1978 -0.002,0.32966 -1.4846,0.65254 -3.29419,0.71751 -2.64638,0.095 -2.91102,-0.006 -1.35242,-0.51971 z m 35.64009,-0.41588 c -0.81912,-1.01761 -0.77117,-1.13456 0.29264,-0.71366 0.69976,0.27685 1.27229,0.82452 1.27229,1.21704 0,1.02769 -0.44868,0.88336 -1.56493,-0.50338 z m 34.539979,-0.32607 c -0.24527,-0.40917 -0.14958,-0.93278 0.21262,-1.16359 0.36222,-0.2308 0.65857,0.10397 0.65857,0.74395 0,1.34752 -0.24442,1.46525 -0.87119,0.41964 z m 10.43081,0.56412 c 0,-0.20613 0.6976,-1.20408 1.55021,-2.21766 2.23511,-2.65709 1.95237,-3.09014 -1.74398,-2.67121 -2.89508,0.32812 -3.10638,0.24988 -1.74399,-0.64585 0.85262,-0.56056 1.89901,-1.06764 2.32531,-1.12684 0.42631,-0.0592 1.21111,-0.16241 1.74399,-0.22936 2.10826,-0.26487 0.80805,-1.63812 -1.77205,-1.8716 -2.61903,-0.237 -2.66713,-0.29509 -1.08155,-1.30598 0.91266,-0.58188 1.4279,-0.67178 1.14498,-0.19979 -0.33425,0.5576 0.65535,0.88025 2.82553,0.92125 1.83697,0.0347 2.90178,0.24522 2.36623,0.46784 -1.38952,0.57759 -0.3863,1.86656 1.45275,1.86656 0.85261,0 1.33464,0.35962 1.07117,0.79916 -0.26347,0.43954 -0.10966,0.79916 0.34181,0.79916 1.04248,0 1.08241,-4.53398 0.0457,-5.19456 -0.42631,-0.27165 -0.77511,-1.20322 -0.77511,-2.07015 0,-0.86694 -0.52119,-1.782454 -1.1582,-2.034486 -0.63702,-0.252032 -0.96523,-0.78018 -0.72936,-1.173663 0.23586,-0.393482 -1.42292,-0.757972 -3.6862,-0.809976 -3.61361,-0.08303 -3.8317,-0.175612 -1.78973,-0.759783 2.22949,-0.637818 2.20554,-0.657 -0.58133,-0.465501 -3.30729,0.227259 -3.90647,-0.78847 -0.92089,-1.561064 1.22122,-0.31602 3.16229,0.03314 5.04158,0.906885 3.20185,1.48865 9.20262,1.938543 9.31578,0.698429 0.0363,-0.397276 0.3651,-1.094005 0.73076,-1.548286 0.85128,-1.057569 -0.36161,-3.141831 -1.43156,-2.460036 -0.44452,0.283251 -1.0273,0.149512 -1.29506,-0.297197 -0.76381,-1.274229 -2.16255,-0.949551 -1.66528,0.386546 0.24539,0.65931 0.1083,1.198745 -0.30462,1.198745 -0.41291,0 -0.75077,-0.451634 -0.75077,-1.003631 0,-1.276523 -6.934,-4.590511 -9.60492,-4.590511 -1.11191,0 -2.66876,0.667197 -3.45967,1.48266 -1.68152,1.733714 -5.53792,2.937876 -5.53792,1.729218 0,-0.698832 1.54774,-1.15357 3.20191,-0.940745 0.26896,0.0346 1.10782,-0.642055 1.86411,-1.503689 0.7563,-0.861634 1.15846,-1.566608 0.89369,-1.566608 -0.60874,0 -6.2155,2.661225 -6.73481,3.196653 -0.21316,0.21977 -1.25955,0.510825 -2.32532,0.646789 -1.06577,0.135964 -3.05795,0.775623 -4.42708,1.421464 -2.45291,1.157083 -6.80119,0.805232 -6.02622,-0.487623 0.2131,-0.355499 2.70901,-1.419662 5.54648,-2.364806 2.83747,-0.945145 8.1017,-3.133284 11.69828,-4.862532 3.59659,-1.729248 6.89073,-3.144087 7.32032,-3.144087 0.42958,0 0.56935,-0.568847 0.31059,-1.264106 -0.25877,-0.695259 -0.47048,-1.405271 -0.47048,-1.577804 0,-0.172533 -1.00076,-0.847273 -2.22391,-1.499421 -1.22315,-0.652148 -3.99898,-2.747929 -6.16852,-4.657293 -4.98118,-4.383833 -9.0271,-4.983634 -12.32824,-1.82764 -1.26123,1.205779 -2.65407,1.849739 -3.44268,1.591676 -0.94426,-0.308999 -1.29331,-0.007 -1.21593,1.052184 0.0597,0.817081 -1.03056,3.121004 -2.42279,5.119831 -1.39224,1.998826 -2.99987,5.393631 -3.57253,7.544009 -1.02601,3.852812 -1.04219,3.868044 -1.11049,1.045403 -0.0507,-2.095245 0.71949,-4.026535 2.86833,-7.192468 4.26564,-6.284679 4.56554,-7.001551 1.8309,-4.376423 -3.0982,2.974128 -5.54364,8.136711 -5.54364,11.703217 0,2.583918 0.27253,2.880344 4.29371,4.670082 2.36154,1.05107 4.49641,2.249201 4.74416,2.662513 0.24775,0.413312 -0.28923,0.343321 -1.19329,-0.155536 -0.90406,-0.498856 -1.64374,-0.670513 -1.64374,-0.381459 0,0.289054 -0.51331,0.08632 -1.14069,-0.450515 -2.12377,-1.817281 -6.70306,-2.407911 -9.0339,-1.165178 -1.182559,0.630507 -2.952219,1.151883 -3.932579,1.158613 -1.86318,0.01279 -4.32807,1.245216 -3.69779,1.848863 0.2008,0.192324 1.49835,0.599998 2.88343,0.905942 2.10064,0.464 2.44043,0.346933 2.04861,-0.705808 -0.37011,-0.994435 0.0821,-1.264386 2.1323,-1.272984 1.431109,-0.006 3.474009,-0.195957 4.539779,-0.422124 l 1.93776,-0.411212 -1.8612,0.84066 c -1.02366,0.462363 -2.6553,0.908421 -3.62587,0.991241 -0.970559,0.08282 -1.588209,0.444949 -1.372549,0.804731 0.21567,0.359782 1.672909,0.471063 3.238319,0.247291 2.29787,-0.328476 2.47288,-0.271566 0.90843,0.2954 -4.666789,1.691275 -10.456299,0.661112 -13.657489,-2.430162 -0.90386,-0.872819 -2.37715,-1.643934 -3.27398,-1.713587 -0.89683,-0.06966 -1.7913,-0.558409 -1.98771,-1.086124 -0.26301,-0.706684 0.26393,-0.775845 1.99998,-0.262497 2.1298,0.629777 2.31765,0.541487 1.94808,-0.915603 -0.33363,-1.315408 -0.20755,-1.440208 0.68413,-0.677202 0.60123,0.514463 0.89256,1.270015 0.6474,1.679006 -0.50171,0.836987 1.0499,3.071095 2.13291,3.071095 0.38785,0 1.02062,-0.809153 1.40617,-1.798117 0.38555,-0.988965 0.72311,-1.348588 0.75013,-0.799163 0.027,0.549424 0.86753,0.998953 1.8678,0.998953 2.48816,0 6.856949,-2.345374 6.473179,-3.475116 -0.51301,-1.510222 1.77244,-8.527791 3.81234,-11.705966 1.04553,-1.628954 3.67993,-4.453763 5.8542,-6.277355 3.55075,-2.978048 4.38056,-3.315621 8.15045,-3.315621 4.75459,0 7.37476,1.161055 10.65987,4.723633 1.2521,1.35786 2.72235,2.468836 3.26722,2.468836 0.54487,0 2.21936,1.112292 3.7211,2.47176 2.34583,2.123599 3.25035,2.442822 6.42158,2.266306 7.95222,-0.442629 8.30985,-0.133655 5.24137,4.528341 -2.53028,3.8443 -2.44405,5.060332 0.43834,6.182083 2.19311,0.853501 2.33729,1.140496 1.87218,3.726606 -0.69372,3.857179 -2.53548,5.814304 -4.89658,5.203315 -1.67948,-0.434606 -1.8184,-0.291052 -1.30953,1.353269 1.15705,3.73882 1.33221,7.08411 0.42963,8.20541 -0.50886,0.63217 -0.69847,1.88589 -0.42137,2.78606 0.29296,0.95168 0.15756,1.63668 -0.32351,1.63668 -0.45504,0 -0.82734,-1.07887 -0.82734,-2.39749 0,-1.8126 -0.35504,-2.39749 -1.45531,-2.39749 -1.46589,0 -3.91596,2.31734 -3.19532,3.02221 0.21315,0.2085 -0.39724,0.91633 -1.35643,1.57298 -0.95919,0.65665 -1.74399,1.02526 -1.74399,0.81913 z m 12.01412,-15.803438 c 0.26713,-0.445635 -0.31268,-0.79375 -1.31068,-0.786926 -1.43987,0.0098 -1.56245,0.163677 -0.62708,0.786926 1.44227,0.960993 1.36171,0.960993 1.93776,0 z m -30.63908,-6.36209 c 1.54661,-1.008463 0.73291,-1.671463 -1.35911,-1.107406 -0.93578,0.252307 -1.51036,0.777479 -1.27685,1.167047 0.53605,0.894257 1.19594,0.879327 2.63596,-0.05964 z M 123.426,89.52795 c 0.27155,-0.453013 -0.0396,-0.58699 -0.72935,-0.314079 -1.34281,0.531276 -1.5885,1.104089 -0.47356,1.104089 0.40115,0 0.94246,-0.355505 1.20291,-0.79001 z m 22.64649,-0.808316 c -0.26347,-1.038803 -0.0238,-1.598327 0.68471,-1.598327 1.35069,0 1.4364,-1.321055 0.12121,-1.868219 -0.57881,-0.240801 -0.42278,-0.428488 0.38755,-0.466179 0.74604,-0.0347 1.35643,-0.602526 1.35643,-1.261836 0,-0.659309 0.37371,-1.198745 0.83047,-1.198745 0.47536,0 0.37348,-0.471177 -0.23826,-1.101899 -1.97592,-2.037251 -10.47996,0.146768 -20.54998,5.27767 -3.16575,1.61302 -1.26021,1.489808 2.47247,-0.15987 4.38208,-1.93668 4.60133,-1.959523 4.02822,-0.419666 -0.34282,0.921106 0.16594,1.198744 2.19665,1.198744 1.45354,0 2.85836,0.359624 3.12183,0.799164 0.26348,0.439539 1.59205,0.80467 2.95239,0.8114 1.88201,0.0093 2.19537,0.197453 1.31069,0.786926 -0.97862,0.652058 -0.93363,0.776625 0.28418,0.786925 1.06733,0.009 1.3405,-0.406997 1.04144,-1.586088 z m -9.85177,-3.920998 c 0,-0.398391 0.69759,-0.536259 1.55021,-0.306375 0.85261,0.229884 1.55021,0.55584 1.55021,0.724346 0,0.168506 -0.6976,0.306374 -1.55021,0.306374 -0.85262,0 -1.55021,-0.325955 -1.55021,-0.724345 z m 5.03818,-2.12877 c 2.13154,-0.611528 4.74751,-1.088667 5.81328,-1.060309 1.06577,0.02835 -0.15502,0.537768 -2.71286,1.13202 -6.04588,1.404611 -8.08211,1.357514 -3.10042,-0.07171 z M 116.45555,70.338911 c 0.77161,-0.87908 1.05413,-1.598326 0.62782,-1.598326 -0.42631,0 -1.40642,0.719246 -2.17803,1.598326 -0.7716,0.879079 -1.05412,1.598326 -0.62781,1.598326 0.4263,0 1.40641,-0.719247 2.17802,-1.598326 z m 3.14327,41.956069 c 0.30633,-0.87908 0.57895,-2.40748 0.60585,-3.39645 0.0308,-1.13399 0.3205,-1.51808 0.78428,-1.0399 0.80676,0.8318 5.15541,-1.10116 5.15541,-2.29156 0,-0.38122 0.53449,-0.90461 1.18776,-1.16307 0.96344,-0.38118 0.92685,-0.10603 -0.19378,1.45695 -0.75985,1.05978 -2.02321,2.1066 -2.80746,2.32626 -1.01614,0.28459 -1.28552,0.8555 -0.93735,1.98652 0.26871,0.87294 0.12958,1.81591 -0.30918,2.0955 -0.46267,0.29482 -0.61651,0.0213 -0.36624,-0.65107 0.23733,-0.63768 0.0589,-1.39683 -0.39644,-1.687 -0.45536,-0.29017 -0.82794,-0.21547 -0.82794,0.166 0,0.38147 -0.55167,1.39166 -1.22594,2.24486 -1.20849,1.52923 -1.218,1.52856 -0.66897,-0.0471 z m -81.816389,-1.58682 c 0,-0.21345 2.1061,-1.48424 4.68024,-2.82399 2.57413,-1.33976 4.47525,-2.77788 4.22471,-3.19585 -0.56207,-0.93767 4.43587,-4.18918 5.01677,-3.26377 0.66102,1.05308 4.20035,2.01901 3.57494,0.97566 -0.32894,-0.54875 -0.0758,-0.69796 0.67804,-0.3997 1.4127,0.55893 1.57795,1.64117 0.31677,2.07461 -0.48738,0.1675 0.41651,0.34262 2.00863,0.38915 2.48283,0.0726 2.83986,-0.13188 2.50891,-1.4367 -0.21221,-0.83671 -0.0697,-1.5213 0.31669,-1.5213 0.3864,0 0.72923,0.44953 0.76184,0.99896 0.15577,2.62371 0.71456,4.02168 2.01322,5.03655 0.7785,0.60837 1.03351,1.11756 0.5667,1.13155 -0.46681,0.014 -1.48006,-0.69383 -2.25167,-1.57291 -1.09973,-1.25292 -2.38729,-1.59833 -5.95786,-1.59833 -4.58307,0 -12.70029,2.30657 -15.67353,4.45375 -1.58989,1.14817 -2.7844,1.47091 -2.7844,0.75232 z m 16.27719,-6.75358 c 0,-0.82926 -3.8107,-1.62462 -5.18282,-1.08174 -1.93744,0.76654 -1.00501,1.49099 2.08241,1.61793 1.70523,0.0701 3.10041,-0.17118 3.10041,-0.53619 z m 31.19797,4.19328 c 0.74604,-0.20101 1.96683,-0.20101 2.71287,0 0.74603,0.20101 0.13564,0.36548 -1.35644,0.36548 -1.49207,0 -2.10247,-0.16447 -1.35643,-0.36548 z m -5.04767,-0.86012 c -0.75126,-0.16956 -1.18393,-0.61189 -0.9615,-0.98298 0.22244,-0.37107 -0.47061,-1.38436 -1.54011,-2.25174 -1.57242,-1.27525 -1.71742,-1.66692 -0.75768,-2.04664 0.77859,-0.30804 1.42454,0.17494 1.87778,1.40408 0.38001,1.0305 1.19984,2.075 1.82187,2.3211 1.21003,0.47875 7.41478,-1.44844 8.63785,-2.68291 0.405,-0.40877 1.05403,-0.74321 1.44231,-0.74321 0.38827,0 -0.11749,0.74935 -1.12391,1.66521 -1.38912,1.26415 -1.49345,1.55508 -0.43316,1.20791 0.80434,-0.26338 1.19896,-0.12746 0.93047,0.32045 -0.25643,0.42778 -1.23373,0.74618 -2.1718,0.70755 -0.93806,-0.0386 -2.75196,0.2582 -4.03088,0.65962 -1.27893,0.40142 -2.93998,0.59112 -3.69124,0.42156 z m 12.60494,-0.48906 c 0,-0.16594 0.61039,-0.79528 1.35643,-1.39853 1.22936,-0.99406 1.25678,-0.96579 0.29265,0.30173 -1.01258,1.33121 -1.64908,1.75455 -1.64908,1.0968 z m -16.37607,-1.89596 c -0.96413,-1.26752 -0.93671,-1.29579 0.29265,-0.30173 0.74604,0.60324 1.35643,1.23258 1.35643,1.39853 0,0.65774 -0.6365,0.2344 -1.64908,-1.0968 z m -5.12186,-0.94449 c -1.40075,-1.20504 -1.51214,-1.57796 -0.58133,-1.94623 0.63329,-0.25056 1.15143,-0.14089 1.15143,0.24371 0,0.38458 0.6976,0.51117 1.55021,0.28128 0.85262,-0.22988 1.55021,-0.0277 1.55021,0.44932 0,0.49288 -0.58557,0.64102 -1.35643,0.34316 -1.18784,-0.45898 -1.22422,-0.35653 -0.29265,0.82425 1.41632,1.79521 0.15022,1.67277 -2.02144,-0.19549 z m -31.79052,0.19381 c 0.74604,-0.20101 1.96683,-0.20101 2.71287,0 0.74604,0.20101 0.13564,0.36548 -1.35643,0.36548 -1.49208,0 -2.10248,-0.16447 -1.35644,-0.36548 z m 75.621149,0.005 c 0.55953,-0.23085 1.22805,-0.20246 1.48562,0.0631 0.25756,0.26556 -0.20024,0.45443 -1.01732,0.41974 -0.90296,-0.0384 -1.08663,-0.22772 -0.4683,-0.48283 z m 5.16259,-1.01751 c 0.25197,-0.42034 0.99532,-0.55171 1.65191,-0.29194 0.65658,0.25978 2.26616,-0.34513 3.57686,-1.34424 1.31068,-0.99912 3.48095,-2.071871 4.82281,-2.383904 2.1856,-0.508233 2.43617,-0.378747 2.40539,1.243034 -0.0189,0.9957 -0.26109,2.04399 -0.53819,2.32954 -0.2771,0.28554 -0.4515,-0.12037 -0.38755,-0.90202 0.18482,-2.259193 -2.49307,-2.230598 -4.54167,0.0485 -1.3352,1.48543 -2.64137,2.06531 -4.65206,2.06531 -1.58125,0 -2.59662,-0.33198 -2.3375,-0.76427 z m -14.78594,-1.4998 c 0.37759,-0.62992 5.11806,-0.29922 5.11806,0.35704 0,0.16988 -1.24138,0.30888 -2.75862,0.30888 -1.51723,0 -2.57898,-0.29966 -2.35944,-0.66592 z m 7.37308,-0.19495 c -0.82499,-0.53847 -0.65608,-0.71598 0.69011,-0.72522 2.28338,-0.0157 6.5352,-2.263603 5.99284,-3.168397 -0.22768,-0.37983 0.30654,-0.496335 1.18716,-0.258899 1.4071,0.379385 1.24286,0.641369 -1.35536,2.161884 -4.2241,2.472012 -5.28199,2.795252 -6.51475,1.990632 z M 71.499481,99.907948 c -1.70523,-0.849251 -2.64149,-1.556295 -2.08058,-1.57121 0.56091,-0.01491 1.73195,0.365823 2.6023,0.846082 1.15516,0.63741 1.81987,0.628424 2.46166,-0.03328 1.49715,-1.543627 -0.65765,-2.168865 -5.49574,-1.594641 -4.96636,0.589449 -5.98571,0.28901 -3.68202,-1.085226 2.23695,-1.334425 9.67749,-1.247669 9.68021,0.11287 0.001,0.678251 0.87525,0.312516 2.38693,-0.998954 2.43246,-2.110312 4.59115,-2.707346 4.59115,-1.269786 0,0.43954 -0.71725,0.799163 -1.5939,0.799163 -0.87664,0 -2.62402,1.162844 -3.88306,2.584097 -2.04284,2.306057 -2.14239,2.643967 -0.92519,3.140487 1.00449,0.40975 1.05755,0.56404 0.20131,0.58544 -0.63946,0.016 -2.55784,-0.66579 -4.26307,-1.515045 z m 35.121929,-2.943409 c 0.55953,-0.230855 1.22806,-0.202463 1.48562,0.06309 0.25756,0.265555 -0.20024,0.454437 -1.01733,0.419736 -0.90295,-0.03834 -1.08662,-0.227714 -0.46829,-0.482828 z m 18.74784,-0.24571 c 1.08912,-0.732742 8.38767,-1.188881 7.68646,-0.480383 -0.17763,0.179474 -2.24135,0.536981 -4.58604,0.79446 -2.91252,0.319836 -3.89474,0.220335 -3.10042,-0.314077 z M 70.336821,94.452712 c 0,-1.478821 3.30012,-4.14103 4.99056,-4.02589 1.47293,0.100323 1.46271,0.135742 -0.13071,0.453077 -0.9507,0.189336 -2.43309,1.26773 -3.29419,2.396432 -0.86111,1.128702 -1.56566,1.658074 -1.56566,1.176381 z m 3.41433,-0.738279 c 0.81211,-0.988964 2.0329,-1.769726 2.71287,-1.735025 1.04932,0.05355 1.06046,0.129753 0.0736,0.503863 -0.63947,0.242423 -1.86026,1.023185 -2.71287,1.735025 -1.53701,1.283232 -1.53764,1.27894 -0.0736,-0.503863 z m 46.363269,0.141436 c 1.08481,-1.167909 1.66314,-1.270004 3.10042,-0.547327 0.97177,0.488616 2.29006,1.066109 2.92952,1.283317 0.78083,0.265229 0.64082,0.415646 -0.42631,0.458018 -0.87393,0.0347 -2.01623,-0.377432 -2.53844,-0.91585 -0.74922,-0.772482 -1.3132,-0.753646 -2.67411,0.08931 -1.64634,1.019758 -1.6641,1.003076 -0.39108,-0.367468 z m 9.90546,0.07888 c 0,-0.208483 1.13359,-0.949376 2.51909,-1.64643 l 2.51909,-1.267371 -1.93776,1.62866 c -1.86569,1.568087 -3.10042,2.079888 -3.10042,1.285141 z M 79.372471,91.716526 c 0.1964,-0.329655 -0.24481,-0.599373 -0.98049,-0.599373 -0.73567,0 -1.14069,-0.203001 -0.90005,-0.451114 0.59984,-0.61846 6.02167,0.484082 6.02167,1.224522 0,0.32754 -1.0121,0.557235 -2.24911,0.510433 -1.23702,-0.0468 -2.08843,-0.354814 -1.89202,-0.684468 z m 12.56368,-2.114768 c 1.11047,-0.725344 0.28533,-3.309779 -1.12873,-3.535297 -0.70406,-0.112285 -4.36117,-13.423473 -3.83656,-13.96436 0.1522,-0.156922 0.50647,0.461034 0.78728,1.373237 0.65133,2.115867 1.9563,2.156041 1.9563,0.06023 0,-0.87908 -0.30011,-1.598327 -0.66691,-1.598327 -0.36681,0 -0.6284,-3.506328 -0.58133,-7.791841 0.0922,-8.394868 -1.0419,-12.372023 -6.77962,-23.775104 -2.79019,-5.545191 -3.66782,-7.59205 -3.25527,-7.59205 0.80181,0 8.49393,16.106321 10.21138,21.381331 1.80119,5.532201 1.893,6.459211 1.10293,11.136926 -0.47399,2.806336 -0.58771,5.538454 -0.25271,6.071374 0.33499,0.53292 0.67314,2.767063 0.75143,4.964762 0.16632,4.668818 0.31836,5.374759 2.04078,9.475065 1.31842,3.138574 1.1695,4.519984 -0.48489,4.498052 -0.61283,-0.0081 -0.56714,-0.244763 0.13592,-0.703994 z m -4.33474,-4.298623 c -0.47308,-1.417457 -1.11004,-3.835861 -1.41546,-5.37423 -0.30542,-1.538369 -1.20747,-3.268005 -2.00456,-3.843635 -1.03297,-0.745982 -1.31231,-1.609119 -0.97252,-3.005003 0.33681,-1.383613 -0.0818,-2.718323 -1.4262,-4.547578 -4.32503,-5.884748 -5.65145,-11.00867 -6.83937,-26.420387 -0.44652,-5.793043 -0.99469,-12.420827 -1.21815,-14.728411 -0.26362,-2.722211 -0.11331,-4.195607 0.428,-4.195607 0.45886,0 0.8343,0.530744 0.8343,1.17943 0,0.648686 0.69629,2.356897 1.54731,3.796025 0.85103,1.439128 1.534,2.976219 1.51772,3.415759 -0.0163,0.439539 -0.73396,-0.459519 -1.59486,-1.997908 -0.86091,-1.538389 -1.368,-2.134321 -1.12687,-1.324293 0.24113,0.810028 0.63954,2.428333 0.88536,3.596234 0.35334,1.678738 0.26767,1.872401 -0.40905,0.924711 -0.65081,-0.911403 -0.76487,-0.24094 -0.47587,2.797071 0.20907,2.197699 0.58461,6.82853 0.83453,10.290736 0.77769,10.773353 3.05589,18.37168 6.78818,22.640158 1.13455,1.297541 1.41734,2.406174 1.07023,4.195606 -0.45576,2.349545 0.5358,3.466353 1.2724,1.433123 0.46182,-1.274748 0.78188,-0.335071 2.47178,7.257093 1.37427,6.174071 1.28517,8.261817 -0.1669,3.911106 z m -1.7013,-15.430402 c 0.0372,-0.93098 0.22086,-1.120347 0.46829,-0.482828 0.22391,0.576896 0.19637,1.266174 -0.0612,1.531729 -0.25756,0.265555 -0.44075,-0.206451 -0.4071,-1.048901 z m -1.94359,-6.383792 c -0.2851,-1.171184 -0.36888,-2.28355 -0.18617,-2.471924 0.1827,-0.188374 0.56545,0.615743 0.85055,1.786927 0.2851,1.171184 0.36887,2.28355 0.18617,2.471924 -0.1827,0.188374 -0.56545,-0.615743 -0.85055,-1.786927 z m -3.7535,-14.140927 c -1.55035,-5.816827 -3.0173,-11.654918 -3.25991,-12.973537 -0.42607,-2.315784 -0.4122,-2.329401 0.40713,-0.399582 1.15093,2.710883 6.33763,23.262446 5.96723,23.644336 -0.16261,0.167657 -1.56411,-4.454391 -3.11445,-10.271217 z"
     id="path3723"
     inkscape:connector-curvature="0" />
</svg>
